solid OpenSCAD_Model
  facet normal 0 -1 0
    outer loop
      vertex 12.979 27 -11.9741
      vertex 8.5 27 -15
      vertex 41.5 27 -15
    endloop
  endfacet
  facet normal 0 -1 0
    outer loop
      vertex 36.246 27 -11.4111
      vertex 17 27 0
      vertex 41.5 27 -15
    endloop
  endfacet
  facet normal 0 -1 0
    outer loop
      vertex 33 27 8
      vertex 33 27 0
      vertex 41.5 27 0
    endloop
  endfacet
  facet normal 0 -1 0
    outer loop
      vertex 17 27 0
      vertex 8.5 27 0
      vertex 41.5 27 -15
    endloop
  endfacet
  facet normal 0 -1 0
    outer loop
      vertex 12.979 27 -9.02586
      vertex 14.05 27 -10.5
      vertex 41.5 27 -15
    endloop
  endfacet
  facet normal 0 -1 0
    outer loop
      vertex 37.979 27 -9.02586
      vertex 39.05 27 -10.5
      vertex 33 27 0
    endloop
  endfacet
  facet normal 0 -1 0
    outer loop
      vertex 8.5 27 0
      vertex 8.5 27 -15
      vertex 11.246 27 -11.4111
    endloop
  endfacet
  facet normal 0 -1 0
    outer loop
      vertex 14.05 27 -10.5
      vertex 12.979 27 -11.9741
      vertex 41.5 27 -15
    endloop
  endfacet
  facet normal 0 -1 0
    outer loop
      vertex 8.5 27 0
      vertex 11.246 27 -11.4111
      vertex 11.246 27 -9.58893
    endloop
  endfacet
  facet normal 0 -1 0
    outer loop
      vertex 8.5 27 0
      vertex 12.979 27 -9.02586
      vertex 41.5 27 -15
    endloop
  endfacet
  facet normal 0 -1 0
    outer loop
      vertex 8.5 27 0
      vertex 11.246 27 -9.58893
      vertex 12.979 27 -9.02586
    endloop
  endfacet
  facet normal 0 -1 0
    outer loop
      vertex 11.246 27 -11.4111
      vertex 8.5 27 -15
      vertex 12.979 27 -11.9741
    endloop
  endfacet
  facet normal 0 -1 0
    outer loop
      vertex 37.979 27 -11.9741
      vertex 36.246 27 -11.4111
      vertex 41.5 27 -15
    endloop
  endfacet
  facet normal 0 -1 0
    outer loop
      vertex 33 27 0
      vertex 17 27 0
      vertex 36.246 27 -11.4111
    endloop
  endfacet
  facet normal 0 -1 0
    outer loop
      vertex 33 27 0
      vertex 36.246 27 -11.4111
      vertex 36.246 27 -9.58893
    endloop
  endfacet
  facet normal 0 -1 0
    outer loop
      vertex 33 27 0
      vertex 36.246 27 -9.58893
      vertex 37.979 27 -9.02586
    endloop
  endfacet
  facet normal 0 -1 0
    outer loop
      vertex 41.5 27 0
      vertex 39.05 27 -10.5
      vertex 41.5 27 -15
    endloop
  endfacet
  facet normal 0 -1 0
    outer loop
      vertex 41.5 27 0
      vertex 33 27 0
      vertex 39.05 27 -10.5
    endloop
  endfacet
  facet normal 0 -1 0
    outer loop
      vertex 17 27 0
      vertex 17 27 8
      vertex 8.5 27 0
    endloop
  endfacet
  facet normal 0 -1 0
    outer loop
      vertex 39.05 27 -10.5
      vertex 37.979 27 -11.9741
      vertex 41.5 27 -15
    endloop
  endfacet
  facet normal 0 0 -1
    outer loop
      vertex 8.5 27 -15
      vertex 8.5 32 -15
      vertex 41.5 27 -15
    endloop
  endfacet
  facet normal 0 0 -1
    outer loop
      vertex 41.5 27 -15
      vertex 8.5 32 -15
      vertex 41.5 32 -15
    endloop
  endfacet
  facet normal -1 0 0
    outer loop
      vertex 8.5 27 -15
      vertex 8.5 27 0
      vertex 8.5 32 -15
    endloop
  endfacet
  facet normal -1 0 0
    outer loop
      vertex 8.5 32 -15
      vertex 8.5 27 0
      vertex 8.5 32 0
    endloop
  endfacet
  facet normal -0.685365 0 0.7282
    outer loop
      vertex 8.5 32 0
      vertex 8.5 27 0
      vertex 17 27 8
    endloop
  endfacet
  facet normal -0.685365 0 0.7282
    outer loop
      vertex 17 32 8
      vertex 8.5 32 0
      vertex 17 27 8
    endloop
  endfacet
  facet normal 0 0 1
    outer loop
      vertex 17 32 8
      vertex 17 27 8
      vertex 18.9628 16 8
    endloop
  endfacet
  facet normal 0 0 1
    outer loop
      vertex 21.9091 17.0043 8
      vertex 17 32 8
      vertex 21.75 16 8
    endloop
  endfacet
  facet normal 0 0 1
    outer loop
      vertex 21.75 16 8
      vertex 17 32 8
      vertex 18.9628 16 8
    endloop
  endfacet
  facet normal 0 0 1
    outer loop
      vertex 22.3707 17.9103 8
      vertex 17 32 8
      vertex 21.9091 17.0043 8
    endloop
  endfacet
  facet normal 0 0 1
    outer loop
      vertex 23.0897 18.6293 8
      vertex 17 32 8
      vertex 22.3707 17.9103 8
    endloop
  endfacet
  facet normal 0 0 1
    outer loop
      vertex 23.9957 19.0909 8
      vertex 17 32 8
      vertex 23.0897 18.6293 8
    endloop
  endfacet
  facet normal 0 0 1
    outer loop
      vertex 25 19.25 8
      vertex 17 32 8
      vertex 23.9957 19.0909 8
    endloop
  endfacet
  facet normal 0 0 1
    outer loop
      vertex 26.0043 19.0909 8
      vertex 17 32 8
      vertex 25 19.25 8
    endloop
  endfacet
  facet normal 0 0 1
    outer loop
      vertex 26.9103 18.6293 8
      vertex 17 32 8
      vertex 26.0043 19.0909 8
    endloop
  endfacet
  facet normal 0 0 1
    outer loop
      vertex 27.6293 17.9103 8
      vertex 17 32 8
      vertex 26.9103 18.6293 8
    endloop
  endfacet
  facet normal 0 0 1
    outer loop
      vertex 31.0372 16 8
      vertex 17 32 8
      vertex 27.6293 17.9103 8
    endloop
  endfacet
  facet normal 0 0 1
    outer loop
      vertex 31.0372 16 8
      vertex 27.6293 17.9103 8
      vertex 28.0909 17.0043 8
    endloop
  endfacet
  facet normal 0 0 1
    outer loop
      vertex 31.0372 16 8
      vertex 28.0909 17.0043 8
      vertex 28.25 16 8
    endloop
  endfacet
  facet normal 0 0 1
    outer loop
      vertex 33 27 8
      vertex 17 32 8
      vertex 31.0372 16 8
    endloop
  endfacet
  facet normal 0 0 1
    outer loop
      vertex 33 32 8
      vertex 17 32 8
      vertex 33 27 8
    endloop
  endfacet
  facet normal -0.98445 -0.175663 0
    outer loop
      vertex 18.0241 21.261 6
      vertex 18.9628 16 0
      vertex 18.9628 16 8
    endloop
  endfacet
  facet normal -0.98445 -0.175663 0
    outer loop
      vertex 17 27 0
      vertex 18.9628 16 0
      vertex 17.5757 23.7737 2
    endloop
  endfacet
  facet normal -0.98445 -0.175663 0
    outer loop
      vertex 17 27 0
      vertex 17.5757 23.7737 2
      vertex 17 27 8
    endloop
  endfacet
  facet normal -0.98445 -0.175663 0
    outer loop
      vertex 18.0241 21.261 2
      vertex 18.9628 16 0
      vertex 18.0241 21.261 6
    endloop
  endfacet
  facet normal -0.98445 -0.175663 0
    outer loop
      vertex 17 27 8
      vertex 17.5757 23.7737 6
      vertex 18.9628 16 8
    endloop
  endfacet
  facet normal -0.98445 -0.175663 0
    outer loop
      vertex 17.5757 23.7737 6
      vertex 18.0241 21.261 6
      vertex 18.9628 16 8
    endloop
  endfacet
  facet normal -0.98445 -0.175663 0
    outer loop
      vertex 17.5757 23.7737 2
      vertex 18.9628 16 0
      vertex 18.0241 21.261 2
    endloop
  endfacet
  facet normal -0.98445 -0.175663 0
    outer loop
      vertex 17.5757 23.7737 6
      vertex 17 27 8
      vertex 17.5757 23.7737 2
    endloop
  endfacet
  facet normal 0 0 -1
    outer loop
      vertex 17 27 0
      vertex 33 27 0
      vertex 18.9628 16 0
    endloop
  endfacet
  facet normal 0 0 -1
    outer loop
      vertex 28.25 16 0
      vertex 33 27 0
      vertex 31.0372 16 0
    endloop
  endfacet
  facet normal 0 0 -1
    outer loop
      vertex 28.0909 17.0043 0
      vertex 33 27 0
      vertex 28.25 16 0
    endloop
  endfacet
  facet normal 0 0 -1
    outer loop
      vertex 27.6293 17.9103 0
      vertex 33 27 0
      vertex 28.0909 17.0043 0
    endloop
  endfacet
  facet normal 0 0 -1
    outer loop
      vertex 26.9103 18.6293 0
      vertex 33 27 0
      vertex 27.6293 17.9103 0
    endloop
  endfacet
  facet normal 0 0 -1
    outer loop
      vertex 26.0043 19.0909 0
      vertex 33 27 0
      vertex 26.9103 18.6293 0
    endloop
  endfacet
  facet normal 0 0 -1
    outer loop
      vertex 25 19.25 0
      vertex 33 27 0
      vertex 26.0043 19.0909 0
    endloop
  endfacet
  facet normal 0 0 -1
    outer loop
      vertex 23.9957 19.0909 0
      vertex 33 27 0
      vertex 25 19.25 0
    endloop
  endfacet
  facet normal 0 0 -1
    outer loop
      vertex 23.0897 18.6293 0
      vertex 33 27 0
      vertex 23.9957 19.0909 0
    endloop
  endfacet
  facet normal 0 0 -1
    outer loop
      vertex 18.9628 16 0
      vertex 33 27 0
      vertex 23.0897 18.6293 0
    endloop
  endfacet
  facet normal 0 0 -1
    outer loop
      vertex 21.9091 17.0043 0
      vertex 18.9628 16 0
      vertex 22.3707 17.9103 0
    endloop
  endfacet
  facet normal 0 0 -1
    outer loop
      vertex 21.75 16 0
      vertex 18.9628 16 0
      vertex 21.9091 17.0043 0
    endloop
  endfacet
  facet normal 0 0 -1
    outer loop
      vertex 22.3707 17.9103 0
      vertex 18.9628 16 0
      vertex 23.0897 18.6293 0
    endloop
  endfacet
  facet normal 0.98445 -0.175663 0
    outer loop
      vertex 31.9708 21.232 2
      vertex 31.0372 16 0
      vertex 33 27 0
    endloop
  endfacet
  facet normal 0.98445 -0.175663 0
    outer loop
      vertex 32.4153 23.7232 2
      vertex 31.9708 21.232 2
      vertex 33 27 0
    endloop
  endfacet
  facet normal 0.98445 -0.175663 0
    outer loop
      vertex 31.0372 16 8
      vertex 31.0372 16 0
      vertex 31.9708 21.232 2
    endloop
  endfacet
  facet normal 0.98445 -0.175663 0
    outer loop
      vertex 33 27 8
      vertex 31.0372 16 8
      vertex 31.9708 21.232 6
    endloop
  endfacet
  facet normal 0.98445 -0.175663 0
    outer loop
      vertex 33 27 8
      vertex 32.4153 23.7232 6
      vertex 33 27 0
    endloop
  endfacet
  facet normal 0.98445 -0.175663 0
    outer loop
      vertex 33 27 8
      vertex 31.9708 21.232 6
      vertex 32.4153 23.7232 6
    endloop
  endfacet
  facet normal 0.98445 -0.175663 0
    outer loop
      vertex 32.4153 23.7232 6
      vertex 32.4153 23.7232 2
      vertex 33 27 0
    endloop
  endfacet
  facet normal 0.98445 -0.175663 0
    outer loop
      vertex 31.9708 21.232 2
      vertex 31.9708 21.232 6
      vertex 31.0372 16 8
    endloop
  endfacet
  facet normal 0.685365 0 0.7282
    outer loop
      vertex 33 32 8
      vertex 33 27 8
      vertex 41.5 27 0
    endloop
  endfacet
  facet normal 0.685365 0 0.7282
    outer loop
      vertex 41.5 32 0
      vertex 33 32 8
      vertex 41.5 27 0
    endloop
  endfacet
  facet normal 1 0 0
    outer loop
      vertex 41.5 27 0
      vertex 41.5 27 -15
      vertex 41.5 32 -15
    endloop
  endfacet
  facet normal 1 0 0
    outer loop
      vertex 41.5 32 0
      vertex 41.5 27 0
      vertex 41.5 32 -15
    endloop
  endfacet
  facet normal 1 0 0
    outer loop
      vertex 11.246 32 -11.4111
      vertex 11.246 32 -9.58893
      vertex 11.246 27 -9.58893
    endloop
  endfacet
  facet normal 1 0 0
    outer loop
      vertex 11.246 27 -11.4111
      vertex 11.246 32 -11.4111
      vertex 11.246 27 -9.58893
    endloop
  endfacet
  facet normal 0.309017 2.11177e-16 0.951056
    outer loop
      vertex 12.979 27 -11.9741
      vertex 12.979 32 -11.9741
      vertex 11.246 32 -11.4111
    endloop
  endfacet
  facet normal 0.309017 2.11177e-16 0.951056
    outer loop
      vertex 11.246 27 -11.4111
      vertex 12.979 27 -11.9741
      vertex 11.246 32 -11.4111
    endloop
  endfacet
  facet normal -0.809017 1.30515e-16 0.587785
    outer loop
      vertex 14.05 32 -10.5
      vertex 12.979 32 -11.9741
      vertex 14.05 27 -10.5
    endloop
  endfacet
  facet normal -0.809017 1.30515e-16 0.587785
    outer loop
      vertex 14.05 27 -10.5
      vertex 12.979 32 -11.9741
      vertex 12.979 27 -11.9741
    endloop
  endfacet
  facet normal -0.809017 -1.30515e-16 -0.587785
    outer loop
      vertex 14.05 32 -10.5
      vertex 14.05 27 -10.5
      vertex 12.979 32 -9.02586
    endloop
  endfacet
  facet normal -0.809017 -1.30515e-16 -0.587785
    outer loop
      vertex 12.979 32 -9.02586
      vertex 14.05 27 -10.5
      vertex 12.979 27 -9.02586
    endloop
  endfacet
  facet normal 0.309017 -2.11177e-16 -0.951056
    outer loop
      vertex 12.979 32 -9.02586
      vertex 12.979 27 -9.02586
      vertex 11.246 32 -9.58893
    endloop
  endfacet
  facet normal 0.309017 -2.11177e-16 -0.951056
    outer loop
      vertex 11.246 32 -9.58893
      vertex 12.979 27 -9.02586
      vertex 11.246 27 -9.58893
    endloop
  endfacet
  facet normal 1 0 0
    outer loop
      vertex 36.246 32 -11.4111
      vertex 36.246 32 -9.58893
      vertex 36.246 27 -9.58893
    endloop
  endfacet
  facet normal 1 0 0
    outer loop
      vertex 36.246 27 -11.4111
      vertex 36.246 32 -11.4111
      vertex 36.246 27 -9.58893
    endloop
  endfacet
  facet normal 0.309017 2.11177e-16 0.951056
    outer loop
      vertex 37.979 27 -11.9741
      vertex 37.979 32 -11.9741
      vertex 36.246 32 -11.4111
    endloop
  endfacet
  facet normal 0.309017 2.11177e-16 0.951056
    outer loop
      vertex 36.246 27 -11.4111
      vertex 37.979 27 -11.9741
      vertex 36.246 32 -11.4111
    endloop
  endfacet
  facet normal -0.809017 1.30515e-16 0.587785
    outer loop
      vertex 39.05 32 -10.5
      vertex 37.979 32 -11.9741
      vertex 39.05 27 -10.5
    endloop
  endfacet
  facet normal -0.809017 1.30515e-16 0.587785
    outer loop
      vertex 39.05 27 -10.5
      vertex 37.979 32 -11.9741
      vertex 37.979 27 -11.9741
    endloop
  endfacet
  facet normal -0.809017 -1.30515e-16 -0.587785
    outer loop
      vertex 39.05 32 -10.5
      vertex 39.05 27 -10.5
      vertex 37.979 32 -9.02586
    endloop
  endfacet
  facet normal -0.809017 -1.30515e-16 -0.587785
    outer loop
      vertex 37.979 32 -9.02586
      vertex 39.05 27 -10.5
      vertex 37.979 27 -9.02586
    endloop
  endfacet
  facet normal 0.309017 -2.11177e-16 -0.951056
    outer loop
      vertex 37.979 32 -9.02586
      vertex 37.979 27 -9.02586
      vertex 36.246 32 -9.58893
    endloop
  endfacet
  facet normal 0.309017 -2.11177e-16 -0.951056
    outer loop
      vertex 36.246 32 -9.58893
      vertex 37.979 27 -9.02586
      vertex 36.246 27 -9.58893
    endloop
  endfacet
  facet normal 0 1 0
    outer loop
      vertex 12.979 32 -9.02586
      vertex 8.5 32 0
      vertex 41.5 32 -15
    endloop
  endfacet
  facet normal 0 1 0
    outer loop
      vertex 36.246 32 -11.4111
      vertex 8.5 32 0
      vertex 17 32 8
    endloop
  endfacet
  facet normal 0 1 0
    outer loop
      vertex 36.246 32 -9.58893
      vertex 17 32 8
      vertex 33 32 8
    endloop
  endfacet
  facet normal 0 1 0
    outer loop
      vertex 41.5 32 -15
      vertex 33 32 8
      vertex 41.5 32 0
    endloop
  endfacet
  facet normal 0 1 0
    outer loop
      vertex 8.5 32 -15
      vertex 8.5 32 0
      vertex 11.246 32 -9.58893
    endloop
  endfacet
  facet normal 0 1 0
    outer loop
      vertex 8.5 32 -15
      vertex 11.246 32 -9.58893
      vertex 11.246 32 -11.4111
    endloop
  endfacet
  facet normal 0 1 0
    outer loop
      vertex 8.5 32 -15
      vertex 11.246 32 -11.4111
      vertex 12.979 32 -11.9741
    endloop
  endfacet
  facet normal 0 1 0
    outer loop
      vertex 8.5 32 -15
      vertex 12.979 32 -11.9741
      vertex 41.5 32 -15
    endloop
  endfacet
  facet normal 0 1 0
    outer loop
      vertex 12.979 32 -9.02586
      vertex 41.5 32 -15
      vertex 14.05 32 -10.5
    endloop
  endfacet
  facet normal 0 1 0
    outer loop
      vertex 11.246 32 -9.58893
      vertex 8.5 32 0
      vertex 12.979 32 -9.02586
    endloop
  endfacet
  facet normal 0 1 0
    outer loop
      vertex 36.246 32 -11.4111
      vertex 17 32 8
      vertex 36.246 32 -9.58893
    endloop
  endfacet
  facet normal 0 1 0
    outer loop
      vertex 37.979 32 -9.02586
      vertex 36.246 32 -9.58893
      vertex 33 32 8
    endloop
  endfacet
  facet normal 0 1 0
    outer loop
      vertex 41.5 32 -15
      vertex 8.5 32 0
      vertex 36.246 32 -11.4111
    endloop
  endfacet
  facet normal 0 1 0
    outer loop
      vertex 39.05 32 -10.5
      vertex 41.5 32 -15
      vertex 37.979 32 -11.9741
    endloop
  endfacet
  facet normal 0 1 0
    outer loop
      vertex 41.5 32 -15
      vertex 36.246 32 -11.4111
      vertex 37.979 32 -11.9741
    endloop
  endfacet
  facet normal 0 1 0
    outer loop
      vertex 41.5 32 -15
      vertex 39.05 32 -10.5
      vertex 33 32 8
    endloop
  endfacet
  facet normal 0 1 0
    outer loop
      vertex 39.05 32 -10.5
      vertex 37.979 32 -9.02586
      vertex 33 32 8
    endloop
  endfacet
  facet normal 0 1 0
    outer loop
      vertex 14.05 32 -10.5
      vertex 41.5 32 -15
      vertex 12.979 32 -11.9741
    endloop
  endfacet
  facet normal 0 -1 0
    outer loop
      vertex 31.0372 16 0
      vertex 31.0372 16 8
      vertex 28.25 16 8
    endloop
  endfacet
  facet normal 0 -1 0
    outer loop
      vertex 28.25 16 0
      vertex 31.0372 16 0
      vertex 28.25 16 8
    endloop
  endfacet
  facet normal -0.987688 -0.156434 0
    outer loop
      vertex 28.25 16 8
      vertex 28.0909 17.0043 8
      vertex 28.25 16 0
    endloop
  endfacet
  facet normal -0.987688 -0.156434 0
    outer loop
      vertex 28.25 16 0
      vertex 28.0909 17.0043 8
      vertex 28.0909 17.0043 0
    endloop
  endfacet
  facet normal -0.891006 -0.453991 0
    outer loop
      vertex 28.0909 17.0043 8
      vertex 27.6293 17.9103 8
      vertex 28.0909 17.0043 0
    endloop
  endfacet
  facet normal -0.891006 -0.453991 0
    outer loop
      vertex 28.0909 17.0043 0
      vertex 27.6293 17.9103 8
      vertex 27.6293 17.9103 0
    endloop
  endfacet
  facet normal -0.707107 -0.707107 0
    outer loop
      vertex 27.6293 17.9103 0
      vertex 27.6293 17.9103 8
      vertex 26.9103 18.6293 8
    endloop
  endfacet
  facet normal -0.707107 -0.707107 0
    outer loop
      vertex 26.9103 18.6293 0
      vertex 27.6293 17.9103 0
      vertex 26.9103 18.6293 8
    endloop
  endfacet
  facet normal -0.453991 -0.891006 0
    outer loop
      vertex 26.9103 18.6293 0
      vertex 26.9103 18.6293 8
      vertex 26.0043 19.0909 8
    endloop
  endfacet
  facet normal -0.453991 -0.891006 0
    outer loop
      vertex 26.0043 19.0909 0
      vertex 26.9103 18.6293 0
      vertex 26.0043 19.0909 8
    endloop
  endfacet
  facet normal -0.156434 -0.987688 0
    outer loop
      vertex 26.0043 19.0909 0
      vertex 26.0043 19.0909 8
      vertex 25 19.25 8
    endloop
  endfacet
  facet normal -0.156434 -0.987688 0
    outer loop
      vertex 25 19.25 0
      vertex 26.0043 19.0909 0
      vertex 25 19.25 8
    endloop
  endfacet
  facet normal 0.156434 -0.987688 0
    outer loop
      vertex 25 19.25 0
      vertex 25 19.25 8
      vertex 23.9957 19.0909 8
    endloop
  endfacet
  facet normal 0.156434 -0.987688 0
    outer loop
      vertex 23.9957 19.0909 0
      vertex 25 19.25 0
      vertex 23.9957 19.0909 8
    endloop
  endfacet
  facet normal 0.453991 -0.891006 0
    outer loop
      vertex 23.9957 19.0909 0
      vertex 23.9957 19.0909 8
      vertex 23.0897 18.6293 8
    endloop
  endfacet
  facet normal 0.453991 -0.891006 0
    outer loop
      vertex 23.0897 18.6293 0
      vertex 23.9957 19.0909 0
      vertex 23.0897 18.6293 8
    endloop
  endfacet
  facet normal 0.707107 -0.707107 0
    outer loop
      vertex 23.0897 18.6293 0
      vertex 23.0897 18.6293 8
      vertex 22.3707 17.9103 8
    endloop
  endfacet
  facet normal 0.707107 -0.707107 0
    outer loop
      vertex 22.3707 17.9103 0
      vertex 23.0897 18.6293 0
      vertex 22.3707 17.9103 8
    endloop
  endfacet
  facet normal 0.891006 -0.453991 0
    outer loop
      vertex 22.3707 17.9103 0
      vertex 22.3707 17.9103 8
      vertex 21.9091 17.0043 8
    endloop
  endfacet
  facet normal 0.891006 -0.453991 0
    outer loop
      vertex 21.9091 17.0043 0
      vertex 22.3707 17.9103 0
      vertex 21.9091 17.0043 8
    endloop
  endfacet
  facet normal 0.987688 -0.156434 0
    outer loop
      vertex 21.9091 17.0043 0
      vertex 21.9091 17.0043 8
      vertex 21.75 16 8
    endloop
  endfacet
  facet normal 0.987688 -0.156434 0
    outer loop
      vertex 21.75 16 0
      vertex 21.9091 17.0043 0
      vertex 21.75 16 8
    endloop
  endfacet
  facet normal 0 -1 0
    outer loop
      vertex 21.75 16 0
      vertex 21.75 16 8
      vertex 18.9628 16 8
    endloop
  endfacet
  facet normal 0 -1 0
    outer loop
      vertex 18.9628 16 0
      vertex 21.75 16 0
      vertex 18.9628 16 8
    endloop
  endfacet
  facet normal 0 0 1
    outer loop
      vertex 22.6079 26.4805 2
      vertex 18.9532 22.3245 2
      vertex 20.1797 23.3025 2
    endloop
  endfacet
  facet normal 0 0 1
    outer loop
      vertex 23.0529 24.5306 2
      vertex 26.443 26.6527 2
      vertex 21.561 24.0459 2
    endloop
  endfacet
  facet normal 0 0 1
    outer loop
      vertex 21.561 24.0459 2
      vertex 24.5177 26.7392 2
      vertex 20.1797 23.3025 2
    endloop
  endfacet
  facet normal 0 0 1
    outer loop
      vertex 18.0241 21.261 2
      vertex 18.9532 22.3245 2
      vertex 20.775 25.8849 2
    endloop
  endfacet
  facet normal 0 0 1
    outer loop
      vertex 24.6074 24.7412 2
      vertex 28.3219 26.2239 2
      vertex 23.0529 24.5306 2
    endloop
  endfacet
  facet normal 0 0 1
    outer loop
      vertex 26.1745 24.6708 2
      vertex 30.0941 25.4664 2
      vertex 24.6074 24.7412 2
    endloop
  endfacet
  facet normal 0 0 1
    outer loop
      vertex 27.7039 24.3217 2
      vertex 32.4153 23.7232 2
      vertex 26.1745 24.6708 2
    endloop
  endfacet
  facet normal 0 0 1
    outer loop
      vertex 29.1464 23.7052 2
      vertex 32.4153 23.7232 2
      vertex 27.7039 24.3217 2
    endloop
  endfacet
  facet normal 0 0 1
    outer loop
      vertex 30.4555 22.841 2
      vertex 32.4153 23.7232 2
      vertex 29.1464 23.7052 2
    endloop
  endfacet
  facet normal 0 0 1
    outer loop
      vertex 31.5894 21.757 2
      vertex 32.4153 23.7232 2
      vertex 30.4555 22.841 2
    endloop
  endfacet
  facet normal 0 0 1
    outer loop
      vertex 31.9708 21.232 2
      vertex 32.4153 23.7232 2
      vertex 31.5894 21.757 2
    endloop
  endfacet
  facet normal 0 0 1
    outer loop
      vertex 32.4153 23.7232 2
      vertex 31.7025 24.4047 2
      vertex 26.1745 24.6708 2
    endloop
  endfacet
  facet normal 0 0 1
    outer loop
      vertex 31.7025 24.4047 2
      vertex 30.0941 25.4664 2
      vertex 26.1745 24.6708 2
    endloop
  endfacet
  facet normal 0 0 1
    outer loop
      vertex 30.0941 25.4664 2
      vertex 28.3219 26.2239 2
      vertex 24.6074 24.7412 2
    endloop
  endfacet
  facet normal 0 0 1
    outer loop
      vertex 28.3219 26.2239 2
      vertex 26.443 26.6527 2
      vertex 23.0529 24.5306 2
    endloop
  endfacet
  facet normal 0 0 1
    outer loop
      vertex 26.443 26.6527 2
      vertex 24.5177 26.7392 2
      vertex 21.561 24.0459 2
    endloop
  endfacet
  facet normal 0 0 1
    outer loop
      vertex 24.5177 26.7392 2
      vertex 22.6079 26.4805 2
      vertex 20.1797 23.3025 2
    endloop
  endfacet
  facet normal 0 0 1
    outer loop
      vertex 22.6079 26.4805 2
      vertex 20.775 25.8849 2
      vertex 18.9532 22.3245 2
    endloop
  endfacet
  facet normal 0 0 1
    outer loop
      vertex 20.775 25.8849 2
      vertex 19.0779 24.9717 2
      vertex 18.0241 21.261 2
    endloop
  endfacet
  facet normal 0 0 1
    outer loop
      vertex 19.0779 24.9717 2
      vertex 17.5757 23.7737 2
      vertex 18.0241 21.261 2
    endloop
  endfacet
  facet normal 0.62349 -0.781831 0
    outer loop
      vertex 19.0779 24.9717 2
      vertex 19.0779 24.9717 6
      vertex 17.5757 23.7737 6
    endloop
  endfacet
  facet normal 0.62349 -0.781831 0
    outer loop
      vertex 17.5757 23.7737 2
      vertex 19.0779 24.9717 2
      vertex 17.5757 23.7737 6
    endloop
  endfacet
  facet normal -0.753071 0.657939 0
    outer loop
      vertex 18.0241 21.261 2
      vertex 18.0241 21.261 6
      vertex 18.9532 22.3245 2
    endloop
  endfacet
  facet normal -0.753071 0.657939 0
    outer loop
      vertex 18.9532 22.3245 2
      vertex 18.0241 21.261 6
      vertex 18.9532 22.3245 6
    endloop
  endfacet
  facet normal 0 0 -1
    outer loop
      vertex 20.775 25.8849 6
      vertex 22.6079 26.4805 6
      vertex 19.0779 24.9717 6
    endloop
  endfacet
  facet normal 0 0 -1
    outer loop
      vertex 19.0779 24.9717 6
      vertex 22.6079 26.4805 6
      vertex 24.5177 26.7392 6
    endloop
  endfacet
  facet normal 0 0 -1
    outer loop
      vertex 19.0779 24.9717 6
      vertex 24.5177 26.7392 6
      vertex 26.443 26.6527 6
    endloop
  endfacet
  facet normal 0 0 -1
    outer loop
      vertex 19.0779 24.9717 6
      vertex 26.443 26.6527 6
      vertex 28.3219 26.2239 6
    endloop
  endfacet
  facet normal 0 0 -1
    outer loop
      vertex 19.0779 24.9717 6
      vertex 28.3219 26.2239 6
      vertex 30.0941 25.4664 6
    endloop
  endfacet
  facet normal 0 0 -1
    outer loop
      vertex 26.1745 24.6708 6
      vertex 30.0941 25.4664 6
      vertex 31.7025 24.4047 6
    endloop
  endfacet
  facet normal 0 0 -1
    outer loop
      vertex 27.7039 24.3217 6
      vertex 31.7025 24.4047 6
      vertex 32.4153 23.7232 6
    endloop
  endfacet
  facet normal 0 0 -1
    outer loop
      vertex 31.5894 21.757 6
      vertex 32.4153 23.7232 6
      vertex 31.9708 21.232 6
    endloop
  endfacet
  facet normal 0 0 -1
    outer loop
      vertex 30.4555 22.841 6
      vertex 32.4153 23.7232 6
      vertex 31.5894 21.757 6
    endloop
  endfacet
  facet normal 0 0 -1
    outer loop
      vertex 29.1464 23.7052 6
      vertex 32.4153 23.7232 6
      vertex 30.4555 22.841 6
    endloop
  endfacet
  facet normal 0 0 -1
    outer loop
      vertex 26.1745 24.6708 6
      vertex 31.7025 24.4047 6
      vertex 27.7039 24.3217 6
    endloop
  endfacet
  facet normal 0 0 -1
    outer loop
      vertex 24.6074 24.7412 6
      vertex 30.0941 25.4664 6
      vertex 26.1745 24.6708 6
    endloop
  endfacet
  facet normal 0 0 -1
    outer loop
      vertex 23.0529 24.5306 6
      vertex 19.0779 24.9717 6
      vertex 24.6074 24.7412 6
    endloop
  endfacet
  facet normal 0 0 -1
    outer loop
      vertex 19.0779 24.9717 6
      vertex 30.0941 25.4664 6
      vertex 24.6074 24.7412 6
    endloop
  endfacet
  facet normal 0 0 -1
    outer loop
      vertex 19.0779 24.9717 6
      vertex 21.561 24.0459 6
      vertex 20.1797 23.3025 6
    endloop
  endfacet
  facet normal 0 0 -1
    outer loop
      vertex 20.1797 23.3025 6
      vertex 18.9532 22.3245 6
      vertex 19.0779 24.9717 6
    endloop
  endfacet
  facet normal 0 0 -1
    outer loop
      vertex 18.9532 22.3245 6
      vertex 18.0241 21.261 6
      vertex 19.0779 24.9717 6
    endloop
  endfacet
  facet normal 0 0 -1
    outer loop
      vertex 19.0779 24.9717 6
      vertex 18.0241 21.261 6
      vertex 17.5757 23.7737 6
    endloop
  endfacet
  facet normal 0 0 -1
    outer loop
      vertex 27.7039 24.3217 6
      vertex 32.4153 23.7232 6
      vertex 29.1464 23.7052 6
    endloop
  endfacet
  facet normal 0 0 -1
    outer loop
      vertex 21.561 24.0459 6
      vertex 19.0779 24.9717 6
      vertex 23.0529 24.5306 6
    endloop
  endfacet
  facet normal 0.809017 0.587785 0
    outer loop
      vertex 31.9708 21.232 2
      vertex 31.5894 21.757 2
      vertex 31.5894 21.757 6
    endloop
  endfacet
  facet normal 0.809017 0.587785 0
    outer loop
      vertex 31.9708 21.232 6
      vertex 31.9708 21.232 2
      vertex 31.5894 21.757 6
    endloop
  endfacet
  facet normal -0.691063 -0.722795 0
    outer loop
      vertex 32.4153 23.7232 2
      vertex 32.4153 23.7232 6
      vertex 31.7025 24.4047 6
    endloop
  endfacet
  facet normal -0.691063 -0.722795 0
    outer loop
      vertex 31.7025 24.4047 2
      vertex 32.4153 23.7232 2
      vertex 31.7025 24.4047 6
    endloop
  endfacet
  facet normal 0.473869 -0.880595 0
    outer loop
      vertex 20.775 25.8849 2
      vertex 20.775 25.8849 6
      vertex 19.0779 24.9717 6
    endloop
  endfacet
  facet normal 0.473869 -0.880595 0
    outer loop
      vertex 19.0779 24.9717 2
      vertex 20.775 25.8849 2
      vertex 19.0779 24.9717 6
    endloop
  endfacet
  facet normal 0.309017 -0.951057 0
    outer loop
      vertex 22.6079 26.4805 2
      vertex 22.6079 26.4805 6
      vertex 20.775 25.8849 6
    endloop
  endfacet
  facet normal 0.309017 -0.951057 0
    outer loop
      vertex 20.775 25.8849 2
      vertex 22.6079 26.4805 2
      vertex 20.775 25.8849 6
    endloop
  endfacet
  facet normal 0.134233 -0.99095 0
    outer loop
      vertex 24.5177 26.7392 2
      vertex 24.5177 26.7392 6
      vertex 22.6079 26.4805 6
    endloop
  endfacet
  facet normal 0.134233 -0.99095 0
    outer loop
      vertex 22.6079 26.4805 2
      vertex 24.5177 26.7392 2
      vertex 22.6079 26.4805 6
    endloop
  endfacet
  facet normal -0.0448645 -0.998993 0
    outer loop
      vertex 26.443 26.6527 2
      vertex 26.443 26.6527 6
      vertex 24.5177 26.7392 6
    endloop
  endfacet
  facet normal -0.0448645 -0.998993 0
    outer loop
      vertex 24.5177 26.7392 2
      vertex 26.443 26.6527 2
      vertex 24.5177 26.7392 6
    endloop
  endfacet
  facet normal -0.222521 -0.974928 0
    outer loop
      vertex 28.3219 26.2239 2
      vertex 28.3219 26.2239 6
      vertex 26.443 26.6527 6
    endloop
  endfacet
  facet normal -0.222521 -0.974928 0
    outer loop
      vertex 26.443 26.6527 2
      vertex 28.3219 26.2239 2
      vertex 26.443 26.6527 6
    endloop
  endfacet
  facet normal -0.393025 -0.919528 0
    outer loop
      vertex 30.0941 25.4664 2
      vertex 30.0941 25.4664 6
      vertex 28.3219 26.2239 6
    endloop
  endfacet
  facet normal -0.393025 -0.919528 0
    outer loop
      vertex 28.3219 26.2239 2
      vertex 30.0941 25.4664 2
      vertex 28.3219 26.2239 6
    endloop
  endfacet
  facet normal -0.550897 -0.834573 0
    outer loop
      vertex 31.7025 24.4047 2
      vertex 31.7025 24.4047 6
      vertex 30.0941 25.4664 6
    endloop
  endfacet
  facet normal -0.550897 -0.834573 0
    outer loop
      vertex 30.0941 25.4664 2
      vertex 31.7025 24.4047 2
      vertex 30.0941 25.4664 6
    endloop
  endfacet
  facet normal 0.691063 0.722795 0
    outer loop
      vertex 30.4555 22.841 2
      vertex 30.4555 22.841 6
      vertex 31.5894 21.757 2
    endloop
  endfacet
  facet normal 0.691063 0.722795 0
    outer loop
      vertex 31.5894 21.757 2
      vertex 30.4555 22.841 6
      vertex 31.5894 21.757 6
    endloop
  endfacet
  facet normal 0.550897 0.834573 0
    outer loop
      vertex 29.1464 23.7052 2
      vertex 29.1464 23.7052 6
      vertex 30.4555 22.841 2
    endloop
  endfacet
  facet normal 0.550897 0.834573 0
    outer loop
      vertex 30.4555 22.841 2
      vertex 29.1464 23.7052 6
      vertex 30.4555 22.841 6
    endloop
  endfacet
  facet normal 0.393025 0.919528 0
    outer loop
      vertex 27.7039 24.3217 2
      vertex 27.7039 24.3217 6
      vertex 29.1464 23.7052 2
    endloop
  endfacet
  facet normal 0.393025 0.919528 0
    outer loop
      vertex 29.1464 23.7052 2
      vertex 27.7039 24.3217 6
      vertex 29.1464 23.7052 6
    endloop
  endfacet
  facet normal 0.22252 0.974928 0
    outer loop
      vertex 26.1745 24.6708 2
      vertex 26.1745 24.6708 6
      vertex 27.7039 24.3217 2
    endloop
  endfacet
  facet normal 0.22252 0.974928 0
    outer loop
      vertex 27.7039 24.3217 2
      vertex 26.1745 24.6708 6
      vertex 27.7039 24.3217 6
    endloop
  endfacet
  facet normal 0.0448649 0.998993 0
    outer loop
      vertex 24.6074 24.7412 2
      vertex 24.6074 24.7412 6
      vertex 26.1745 24.6708 2
    endloop
  endfacet
  facet normal 0.0448649 0.998993 0
    outer loop
      vertex 26.1745 24.6708 2
      vertex 24.6074 24.7412 6
      vertex 26.1745 24.6708 6
    endloop
  endfacet
  facet normal -0.134233 0.99095 0
    outer loop
      vertex 23.0529 24.5306 2
      vertex 23.0529 24.5306 6
      vertex 24.6074 24.7412 2
    endloop
  endfacet
  facet normal -0.134233 0.99095 0
    outer loop
      vertex 24.6074 24.7412 2
      vertex 23.0529 24.5306 6
      vertex 24.6074 24.7412 6
    endloop
  endfacet
  facet normal -0.309017 0.951057 0
    outer loop
      vertex 21.561 24.0459 2
      vertex 21.561 24.0459 6
      vertex 23.0529 24.5306 2
    endloop
  endfacet
  facet normal -0.309017 0.951057 0
    outer loop
      vertex 23.0529 24.5306 2
      vertex 21.561 24.0459 6
      vertex 23.0529 24.5306 6
    endloop
  endfacet
  facet normal -0.473869 0.880596 0
    outer loop
      vertex 20.1797 23.3025 2
      vertex 20.1797 23.3025 6
      vertex 21.561 24.0459 2
    endloop
  endfacet
  facet normal -0.473869 0.880596 0
    outer loop
      vertex 21.561 24.0459 2
      vertex 20.1797 23.3025 6
      vertex 21.561 24.0459 6
    endloop
  endfacet
  facet normal -0.62349 0.781831 0
    outer loop
      vertex 18.9532 22.3245 2
      vertex 18.9532 22.3245 6
      vertex 20.1797 23.3025 2
    endloop
  endfacet
  facet normal -0.62349 0.781831 0
    outer loop
      vertex 20.1797 23.3025 2
      vertex 18.9532 22.3245 6
      vertex 20.1797 23.3025 6
    endloop
  endfacet
endsolid OpenSCAD_Model
